<svg width="24" height="24" viewBox="0 0 24 24" fill="none" xmlns="http://www.w3.org/2000/svg">
    <path d="M9.12449 20.6735C9.83025 20.5466 14.1307 20.5466 14.8365 20.6735C15.4398 20.7919 16.0923 21.0687 16.0923 21.673C16.0572 22.2483 15.6601 22.7583 15.1115 23.0822C14.4001 23.5536 13.5653 23.8521 12.6926 23.9597C12.2099 24.0128 11.7357 24.014 11.2698 23.9597C10.3957 23.8521 9.56085 23.5536 8.85089 23.081C8.30087 22.7583 7.90379 22.2483 7.86872 21.673C7.86872 21.0687 8.52116 20.7919 9.12449 20.6735ZM12.0638 0C15.0005 0 18.0004 1.18442 19.7823 3.1496C20.9384 4.415 21.4688 5.67919 21.4688 7.64436V8.1556C21.4688 9.66271 21.9374 10.551 22.9687 11.5747C23.7502 12.3289 24 13.297 24 14.3472C24 15.3963 23.5945 16.3922 22.7821 17.2007C21.7186 18.17 20.2187 18.7888 18.6879 18.8964C16.4696 19.0571 14.2499 19.1925 12.0007 19.1925C9.75013 19.1925 7.53183 19.1115 5.31353 18.8964C3.78135 18.7888 2.28144 18.17 1.21929 17.2007C0.406899 16.3922 0 15.3963 0 14.3472C0 13.297 0.251155 12.3289 1.03128 11.5747C2.09483 10.551 2.53259 9.66271 2.53259 8.1556V7.64436C2.53259 5.62601 3.1247 4.30622 4.34399 3.01423C6.1568 1.13004 9.06261 0 11.9376 0H12.0638Z" fill="black"/>
</svg>
